# xmcd CD database file
#
# Track frame offsets:
#	150
#	22590
#	44615
#	64970
#
# Disc length: 1048 seconds
#
# Revision: 1
# Processed by: cddbd v1.4PL0 Copyright (c) Steve Scherf et al.
# Submitted via: CDex 1.40Beta9
#
DISCID=2c041604
DTITLE=Gary Moore - Dark days in paradise
DYEAR=1997
DGENRE=Blues
TTITLE0=One fine day
TTITLE1=I have found my love in you
TTITLE2=Always there for you
TTITLE3=One good reason
EXTD=YEAR: 1997 ID3G: 0
EXTT0=
EXTT1=
EXTT2=
EXTT3=
PLAYORDER=
